<svg xmlns="http://www.w3.org/2000/svg" viewBox="0 0 1200 630" width="1200" height="630">
  <defs>
    <linearGradient id="bg" x1="0" y1="0" x2="1" y2="1">
      <stop offset="0" stop-color="#ffffff"/>
      <stop offset="1" stop-color="#fdecef"/>
    </linearGradient>
  </defs>
  <rect width="1200" height="630" fill="url(#bg)"/>
  <rect x="0" y="0" width="1200" height="10" fill="#dc2640"/>
  <!-- Drapeau tunisien -->
  <g transform="translate(96,150)">
    <rect width="150" height="150" rx="34" fill="#dc2640"/>
    <circle cx="75" cy="75" r="45" fill="#ffffff"/>
    <circle cx="70.5" cy="75" r="28.5" fill="#dc2640"/>
    <circle cx="81" cy="75" r="23.5" fill="#ffffff"/>
    <path d="M93 58.5 l5.1 12.6 13.5 0 -10.8 9 4.05 13.8 -11.85-8.7 -11.85 8.7 4.05-13.8 -10.8-9 13.5 0z" fill="#dc2640"/>
  </g>
  <text x="290" y="232" font-family="Segoe UI, Arial, sans-serif" font-size="74" font-weight="800" fill="#16131a">FCR Tunisie</text>
  <text x="294" y="300" font-family="Segoe UI, Arial, sans-serif" font-size="34" font-weight="600" fill="#b01228">Importer votre voiture · changement de résidence</text>
  <text x="96" y="408" font-family="Segoe UI, Arial, sans-serif" font-size="40" font-weight="700" fill="#16131a">Checklist gratuite, étape par étape — FR / العربية</text>
  <g font-family="Segoe UI, Arial, sans-serif" font-size="28" font-weight="600" fill="#6c6675">
    <text x="96" y="478">✓ Conditions 2026</text>
    <text x="392" y="478">✓ Documents &amp; douane</text>
    <text x="760" y="478">✓ ATTT &amp; immatriculation</text>
  </g>
  <text x="96" y="566" font-family="Segoe UI, Arial, sans-serif" font-size="26" fill="#9a93a0">fcr-tunisie.com</text>
</svg>
